<?xml version="1.0" encoding="UTF-8" standalone="no"?>
<svg xmlns="http://www.w3.org/2000/svg" version="1.0" width="1000.0" height="1000.0" id="f:Regular_polygon_100.svg">
<!-- X Coordinate transform: fx(x)=(x+1.1)*454.54544-->
<!-- Y Coordinate transform: fy(y)=(1.1-y)*454.54544 -->
<g style="stroke:#ff0000;stroke-width:1.6666666;stroke-opacity:0.80;fill-opacity:00">
<!-- Group: <Default>-->
</g>
<g style="stroke:#000000;stroke-width:1.6666666;stroke-opacity:0.80;fill-opacity:00">
<!-- Group: poly-->
<path d="M 954.545,500 953.648,528.541 Z" />
<path d="M 954.545,500 953.648,471.459 Z" />
<path d="M 953.648,471.459 950.961,443.03 Z" />
<path d="M 950.961,443.03 946.494,414.827 Z" />
<path d="M 946.494,414.827 940.265,386.959 Z" />
<path d="M 940.265,386.959 932.298,359.538 Z" />
<path d="M 932.298,359.538 922.626,332.671 Z" />
<path d="M 922.626,332.671 911.285,306.464 Z" />
<path d="M 911.285,306.464 898.321,281.021 Z" />
<path d="M 898.321,281.021 883.785,256.442 Z" />
<path d="M 883.785,256.442 867.735,232.825 Z" />
<path d="M 867.735,232.825 850.233,210.262 Z" />
<path d="M 850.233,210.262 831.349,188.842 Z" />
<path d="M 831.349,188.842 811.158,168.651 Z" />
<path d="M 789.738,149.767 811.158,168.651 Z" />
<path d="M 767.175,132.265 789.738,149.767 Z" />
<path d="M 743.558,116.215 767.175,132.265 Z" />
<path d="M 718.979,101.679 743.558,116.215 Z" />
<path d="M 693.536,88.715 718.979,101.679 Z" />
<path d="M 667.329,77.374 693.536,88.715 Z" />
<path d="M 640.462,67.702 667.329,77.374 Z" />
<path d="M 613.041,59.735 640.462,67.702 Z" />
<path d="M 585.173,53.506 613.041,59.735 Z" />
<path d="M 556.97,49.039 585.173,53.506 Z" />
<path d="M 528.541,46.351 556.97,49.039 Z" />
<path d="M 500,45.455 528.541,46.351 Z" />
<path d="M 500,45.455 471.459,46.351 Z" />
<path d="M 471.459,46.351 443.03,49.039 Z" />
<path d="M 443.03,49.039 414.827,53.506 Z" />
<path d="M 414.827,53.506 386.959,59.735 Z" />
<path d="M 386.959,59.735 359.538,67.702 Z" />
<path d="M 359.538,67.702 332.671,77.374 Z" />
<path d="M 332.671,77.374 306.464,88.715 Z" />
<path d="M 306.464,88.715 281.021,101.679 Z" />
<path d="M 281.021,101.679 256.442,116.215 Z" />
<path d="M 256.442,116.215 232.825,132.265 Z" />
<path d="M 232.825,132.265 210.262,149.767 Z" />
<path d="M 210.262,149.767 188.842,168.651 Z" />
<path d="M 188.842,168.651 168.651,188.842 Z" />
<path d="M 149.767,210.262 168.651,188.842 Z" />
<path d="M 132.265,232.825 149.767,210.262 Z" />
<path d="M 116.215,256.442 132.265,232.825 Z" />
<path d="M 101.679,281.021 116.215,256.442 Z" />
<path d="M 88.715,306.464 101.679,281.021 Z" />
<path d="M 77.374,332.671 88.715,306.464 Z" />
<path d="M 67.702,359.538 77.374,332.671 Z" />
<path d="M 59.735,386.959 67.702,359.538 Z" />
<path d="M 53.506,414.827 59.735,386.959 Z" />
<path d="M 49.039,443.03 53.506,414.827 Z" />
<path d="M 46.351,471.459 49.039,443.03 Z" />
<path d="M 45.455,500 46.351,471.459 Z" />
<path d="M 45.455,500 46.351,528.541 Z" />
<path d="M 46.351,528.541 49.039,556.97 Z" />
<path d="M 49.039,556.97 53.506,585.173 Z" />
<path d="M 53.506,585.173 59.735,613.041 Z" />
<path d="M 59.735,613.041 67.702,640.462 Z" />
<path d="M 67.702,640.462 77.374,667.329 Z" />
<path d="M 77.374,667.329 88.715,693.536 Z" />
<path d="M 88.715,693.536 101.679,718.979 Z" />
<path d="M 101.679,718.979 116.215,743.558 Z" />
<path d="M 116.215,743.558 132.265,767.175 Z" />
<path d="M 132.265,767.175 149.767,789.738 Z" />
<path d="M 149.767,789.738 168.651,811.158 Z" />
<path d="M 168.651,811.158 188.842,831.349 Z" />
<path d="M 210.262,850.233 188.842,831.349 Z" />
<path d="M 232.825,867.735 210.262,850.233 Z" />
<path d="M 256.442,883.785 232.825,867.735 Z" />
<path d="M 281.021,898.321 256.442,883.785 Z" />
<path d="M 306.464,911.285 281.021,898.321 Z" />
<path d="M 332.671,922.626 306.464,911.285 Z" />
<path d="M 359.538,932.298 332.671,922.626 Z" />
<path d="M 386.959,940.265 359.538,932.298 Z" />
<path d="M 414.827,946.494 386.959,940.265 Z" />
<path d="M 443.03,950.961 414.827,946.494 Z" />
<path d="M 471.459,953.648 443.03,950.961 Z" />
<path d="M 500,954.545 471.459,953.648 Z" />
<path d="M 500,954.545 528.541,953.648 Z" />
<path d="M 528.541,953.648 556.97,950.961 Z" />
<path d="M 556.97,950.961 585.173,946.494 Z" />
<path d="M 585.173,946.494 613.041,940.265 Z" />
<path d="M 613.041,940.265 640.462,932.298 Z" />
<path d="M 640.462,932.298 667.329,922.626 Z" />
<path d="M 667.329,922.626 693.536,911.285 Z" />
<path d="M 693.536,911.285 718.979,898.321 Z" />
<path d="M 718.979,898.321 743.558,883.785 Z" />
<path d="M 743.558,883.785 767.175,867.735 Z" />
<path d="M 767.175,867.735 789.738,850.233 Z" />
<path d="M 789.738,850.233 811.158,831.349 Z" />
<path d="M 811.158,831.349 831.349,811.158 Z" />
<path d="M 850.233,789.738 831.349,811.158 Z" />
<path d="M 867.735,767.175 850.233,789.738 Z" />
<path d="M 883.785,743.558 867.735,767.175 Z" />
<path d="M 898.321,718.979 883.785,743.558 Z" />
<path d="M 911.285,693.536 898.321,718.979 Z" />
<path d="M 922.626,667.329 911.285,693.536 Z" />
<path d="M 932.298,640.462 922.626,667.329 Z" />
<path d="M 940.265,613.041 932.298,640.462 Z" />
<path d="M 946.494,585.173 940.265,613.041 Z" />
<path d="M 950.961,556.97 946.494,585.173 Z" />
<path d="M 953.648,528.541 950.961,556.97 Z" />
</g>
<g style="stroke:#000000;stroke-width:0.33333334;fill:#ff007f">
<circle cx="953.648" cy="528.541" r="4.0"/>
<circle cx="954.545" cy="500" r="4.0"/>
<circle cx="954.545" cy="500" r="4.0"/>
<circle cx="953.648" cy="471.459" r="4.0"/>
<circle cx="953.648" cy="471.459" r="4.0"/>
<circle cx="950.961" cy="443.03" r="4.0"/>
<circle cx="950.961" cy="443.03" r="4.0"/>
<circle cx="946.494" cy="414.827" r="4.0"/>
<circle cx="946.494" cy="414.827" r="4.0"/>
<circle cx="940.265" cy="386.959" r="4.0"/>
<circle cx="940.265" cy="386.959" r="4.0"/>
<circle cx="932.298" cy="359.538" r="4.0"/>
<circle cx="932.298" cy="359.538" r="4.0"/>
<circle cx="922.626" cy="332.671" r="4.0"/>
<circle cx="922.626" cy="332.671" r="4.0"/>
<circle cx="911.285" cy="306.464" r="4.0"/>
<circle cx="911.285" cy="306.464" r="4.0"/>
<circle cx="898.321" cy="281.021" r="4.0"/>
<circle cx="898.321" cy="281.021" r="4.0"/>
<circle cx="883.785" cy="256.442" r="4.0"/>
<circle cx="883.785" cy="256.442" r="4.0"/>
<circle cx="867.735" cy="232.825" r="4.0"/>
<circle cx="867.735" cy="232.825" r="4.0"/>
<circle cx="850.233" cy="210.262" r="4.0"/>
<circle cx="850.233" cy="210.262" r="4.0"/>
<circle cx="831.349" cy="188.842" r="4.0"/>
<circle cx="831.349" cy="188.842" r="4.0"/>
<circle cx="811.158" cy="168.651" r="4.0"/>
<circle cx="811.158" cy="168.651" r="4.0"/>
<circle cx="789.738" cy="149.767" r="4.0"/>
<circle cx="789.738" cy="149.767" r="4.0"/>
<circle cx="767.175" cy="132.265" r="4.0"/>
<circle cx="767.175" cy="132.265" r="4.0"/>
<circle cx="743.558" cy="116.215" r="4.0"/>
<circle cx="743.558" cy="116.215" r="4.0"/>
<circle cx="718.979" cy="101.679" r="4.0"/>
<circle cx="718.979" cy="101.679" r="4.0"/>
<circle cx="693.536" cy="88.715" r="4.0"/>
<circle cx="693.536" cy="88.715" r="4.0"/>
<circle cx="667.329" cy="77.374" r="4.0"/>
<circle cx="667.329" cy="77.374" r="4.0"/>
<circle cx="640.462" cy="67.702" r="4.0"/>
<circle cx="640.462" cy="67.702" r="4.0"/>
<circle cx="613.041" cy="59.735" r="4.0"/>
<circle cx="613.041" cy="59.735" r="4.0"/>
<circle cx="585.173" cy="53.506" r="4.0"/>
<circle cx="585.173" cy="53.506" r="4.0"/>
<circle cx="556.97" cy="49.039" r="4.0"/>
<circle cx="556.97" cy="49.039" r="4.0"/>
<circle cx="528.541" cy="46.351" r="4.0"/>
<circle cx="528.541" cy="46.351" r="4.0"/>
<circle cx="500" cy="45.455" r="4.0"/>
<circle cx="500" cy="45.455" r="4.0"/>
<circle cx="471.459" cy="46.351" r="4.0"/>
<circle cx="471.459" cy="46.351" r="4.0"/>
<circle cx="443.03" cy="49.039" r="4.0"/>
<circle cx="443.03" cy="49.039" r="4.0"/>
<circle cx="414.827" cy="53.506" r="4.0"/>
<circle cx="414.827" cy="53.506" r="4.0"/>
<circle cx="386.959" cy="59.735" r="4.0"/>
<circle cx="386.959" cy="59.735" r="4.0"/>
<circle cx="359.538" cy="67.702" r="4.0"/>
<circle cx="359.538" cy="67.702" r="4.0"/>
<circle cx="332.671" cy="77.374" r="4.0"/>
<circle cx="332.671" cy="77.374" r="4.0"/>
<circle cx="306.464" cy="88.715" r="4.0"/>
<circle cx="306.464" cy="88.715" r="4.0"/>
<circle cx="281.021" cy="101.679" r="4.0"/>
<circle cx="281.021" cy="101.679" r="4.0"/>
<circle cx="256.442" cy="116.215" r="4.0"/>
<circle cx="256.442" cy="116.215" r="4.0"/>
<circle cx="232.825" cy="132.265" r="4.0"/>
<circle cx="232.825" cy="132.265" r="4.0"/>
<circle cx="210.262" cy="149.767" r="4.0"/>
<circle cx="210.262" cy="149.767" r="4.0"/>
<circle cx="188.842" cy="168.651" r="4.0"/>
<circle cx="188.842" cy="168.651" r="4.0"/>
<circle cx="168.651" cy="188.842" r="4.0"/>
<circle cx="168.651" cy="188.842" r="4.0"/>
<circle cx="149.767" cy="210.262" r="4.0"/>
<circle cx="149.767" cy="210.262" r="4.0"/>
<circle cx="132.265" cy="232.825" r="4.0"/>
<circle cx="132.265" cy="232.825" r="4.0"/>
<circle cx="116.215" cy="256.442" r="4.0"/>
<circle cx="116.215" cy="256.442" r="4.0"/>
<circle cx="101.679" cy="281.021" r="4.0"/>
<circle cx="101.679" cy="281.021" r="4.0"/>
<circle cx="88.715" cy="306.464" r="4.0"/>
<circle cx="88.715" cy="306.464" r="4.0"/>
<circle cx="77.374" cy="332.671" r="4.0"/>
<circle cx="77.374" cy="332.671" r="4.0"/>
<circle cx="67.702" cy="359.538" r="4.0"/>
<circle cx="67.702" cy="359.538" r="4.0"/>
<circle cx="59.735" cy="386.959" r="4.0"/>
<circle cx="59.735" cy="386.959" r="4.0"/>
<circle cx="53.506" cy="414.827" r="4.0"/>
<circle cx="53.506" cy="414.827" r="4.0"/>
<circle cx="49.039" cy="443.03" r="4.0"/>
<circle cx="49.039" cy="443.03" r="4.0"/>
<circle cx="46.351" cy="471.459" r="4.0"/>
<circle cx="46.351" cy="471.459" r="4.0"/>
<circle cx="45.455" cy="500" r="4.0"/>
<circle cx="45.455" cy="500" r="4.0"/>
<circle cx="46.351" cy="528.541" r="4.0"/>
<circle cx="46.351" cy="528.541" r="4.0"/>
<circle cx="49.039" cy="556.97" r="4.0"/>
<circle cx="49.039" cy="556.97" r="4.0"/>
<circle cx="53.506" cy="585.173" r="4.0"/>
<circle cx="53.506" cy="585.173" r="4.0"/>
<circle cx="59.735" cy="613.041" r="4.0"/>
<circle cx="59.735" cy="613.041" r="4.0"/>
<circle cx="67.702" cy="640.462" r="4.0"/>
<circle cx="67.702" cy="640.462" r="4.0"/>
<circle cx="77.374" cy="667.329" r="4.0"/>
<circle cx="77.374" cy="667.329" r="4.0"/>
<circle cx="88.715" cy="693.536" r="4.0"/>
<circle cx="88.715" cy="693.536" r="4.0"/>
<circle cx="101.679" cy="718.979" r="4.0"/>
<circle cx="101.679" cy="718.979" r="4.0"/>
<circle cx="116.215" cy="743.558" r="4.0"/>
<circle cx="116.215" cy="743.558" r="4.0"/>
<circle cx="132.265" cy="767.175" r="4.0"/>
<circle cx="132.265" cy="767.175" r="4.0"/>
<circle cx="149.767" cy="789.738" r="4.0"/>
<circle cx="149.767" cy="789.738" r="4.0"/>
<circle cx="168.651" cy="811.158" r="4.0"/>
<circle cx="168.651" cy="811.158" r="4.0"/>
<circle cx="188.842" cy="831.349" r="4.0"/>
<circle cx="188.842" cy="831.349" r="4.0"/>
<circle cx="210.262" cy="850.233" r="4.0"/>
<circle cx="210.262" cy="850.233" r="4.0"/>
<circle cx="232.825" cy="867.735" r="4.0"/>
<circle cx="232.825" cy="867.735" r="4.0"/>
<circle cx="256.442" cy="883.785" r="4.0"/>
<circle cx="256.442" cy="883.785" r="4.0"/>
<circle cx="281.021" cy="898.321" r="4.0"/>
<circle cx="281.021" cy="898.321" r="4.0"/>
<circle cx="306.464" cy="911.285" r="4.0"/>
<circle cx="306.464" cy="911.285" r="4.0"/>
<circle cx="332.671" cy="922.626" r="4.0"/>
<circle cx="332.671" cy="922.626" r="4.0"/>
<circle cx="359.538" cy="932.298" r="4.0"/>
<circle cx="359.538" cy="932.298" r="4.0"/>
<circle cx="386.959" cy="940.265" r="4.0"/>
<circle cx="386.959" cy="940.265" r="4.0"/>
<circle cx="414.827" cy="946.494" r="4.0"/>
<circle cx="414.827" cy="946.494" r="4.0"/>
<circle cx="443.03" cy="950.961" r="4.0"/>
<circle cx="443.03" cy="950.961" r="4.0"/>
<circle cx="471.459" cy="953.648" r="4.0"/>
<circle cx="471.459" cy="953.648" r="4.0"/>
<circle cx="500" cy="954.545" r="4.0"/>
<circle cx="500" cy="954.545" r="4.0"/>
<circle cx="528.541" cy="953.648" r="4.0"/>
<circle cx="528.541" cy="953.648" r="4.0"/>
<circle cx="556.97" cy="950.961" r="4.0"/>
<circle cx="556.97" cy="950.961" r="4.0"/>
<circle cx="585.173" cy="946.494" r="4.0"/>
<circle cx="585.173" cy="946.494" r="4.0"/>
<circle cx="613.041" cy="940.265" r="4.0"/>
<circle cx="613.041" cy="940.265" r="4.0"/>
<circle cx="640.462" cy="932.298" r="4.0"/>
<circle cx="640.462" cy="932.298" r="4.0"/>
<circle cx="667.329" cy="922.626" r="4.0"/>
<circle cx="667.329" cy="922.626" r="4.0"/>
<circle cx="693.536" cy="911.285" r="4.0"/>
<circle cx="693.536" cy="911.285" r="4.0"/>
<circle cx="718.979" cy="898.321" r="4.0"/>
<circle cx="718.979" cy="898.321" r="4.0"/>
<circle cx="743.558" cy="883.785" r="4.0"/>
<circle cx="743.558" cy="883.785" r="4.0"/>
<circle cx="767.175" cy="867.735" r="4.0"/>
<circle cx="767.175" cy="867.735" r="4.0"/>
<circle cx="789.738" cy="850.233" r="4.0"/>
<circle cx="789.738" cy="850.233" r="4.0"/>
<circle cx="811.158" cy="831.349" r="4.0"/>
<circle cx="811.158" cy="831.349" r="4.0"/>
<circle cx="831.349" cy="811.158" r="4.0"/>
<circle cx="831.349" cy="811.158" r="4.0"/>
<circle cx="850.233" cy="789.738" r="4.0"/>
<circle cx="850.233" cy="789.738" r="4.0"/>
<circle cx="867.735" cy="767.175" r="4.0"/>
<circle cx="867.735" cy="767.175" r="4.0"/>
<circle cx="883.785" cy="743.558" r="4.0"/>
<circle cx="883.785" cy="743.558" r="4.0"/>
<circle cx="898.321" cy="718.979" r="4.0"/>
<circle cx="898.321" cy="718.979" r="4.0"/>
<circle cx="911.285" cy="693.536" r="4.0"/>
<circle cx="911.285" cy="693.536" r="4.0"/>
<circle cx="922.626" cy="667.329" r="4.0"/>
<circle cx="922.626" cy="667.329" r="4.0"/>
<circle cx="932.298" cy="640.462" r="4.0"/>
<circle cx="932.298" cy="640.462" r="4.0"/>
<circle cx="940.265" cy="613.041" r="4.0"/>
<circle cx="940.265" cy="613.041" r="4.0"/>
<circle cx="946.494" cy="585.173" r="4.0"/>
<circle cx="946.494" cy="585.173" r="4.0"/>
<circle cx="950.961" cy="556.97" r="4.0"/>
<circle cx="950.961" cy="556.97" r="4.0"/>
<circle cx="953.648" cy="528.541" r="4.0"/>
</g>
</svg>
